<svg xmlns="http://www.w3.org/2000/svg" viewBox="0 0 500 500"><g id="freepik--Floor--inject-3"><ellipse id="freepik--floor--inject-3" cx="253.55" cy="359.49" rx="238.68" ry="122.19" style="fill:#fafafa"></ellipse></g><g id="freepik--Shadows--inject-3"><ellipse id="freepik--Shadow--inject-3" cx="389.62" cy="398.2" rx="65.03" ry="40.17" style="fill:#e0e0e0"></ellipse><path id="freepik--shadow--inject-3" d="M235.25,326.12l-41.67-24.05a4.9,4.9,0,0,0-4.47,0L51,381.82a1.36,1.36,0,0,0,0,2.58l41.66,24.06a5,5,0,0,0,4.47,0l12.31-7.11L222.93,336l12.33-7.25A1.38,1.38,0,0,0,235.25,326.12Z" style="fill:#e0e0e0"></path></g><g id="freepik--Plants--inject-3"><g id="freepik--plants--inject-3"><path d="M422.57,383.26l-6.44-3.42s.63-31.44,7.15-55.79c6.68-24.93,26.12-52.47,44.49-42.15s-14.28,31.53-24.1,52S422.57,383.26,422.57,383.26Z" style="fill:#BA68C8"></path><path d="M422.57,383.26l-6.44-3.42s.63-31.44,7.15-55.79c6.68-24.93,26.12-52.47,44.49-42.15s-14.28,31.53-24.1,52S422.57,383.26,422.57,383.26Z" style="opacity:0.15"></path><path d="M421.72,375.8h0a.65.65,0,0,1-.63-.67c1.38-48.79,22.71-78.58,40.56-89.26a.65.65,0,0,1,.67,1.12c-17.57,10.51-38.56,39.91-39.93,88.17A.65.65,0,0,1,421.72,375.8Z" style="fill:#fff"></path><path d="M425.48,384.76l-5.75-2.95s.71-15.44,12.54-35.56c10.5-17.87,31.78-31.87,40.72-26.88,6.94,3.86,8.54,12.32,1.89,17.95S437.53,354.76,425.48,384.76Z" style="fill:#BA68C8"></path><path d="M423.17,379.83c1,.2,1.35-2.27,1.55-2.9.38-1.18.78-2.34,1.22-3.5a69.71,69.71,0,0,1,2.93-6.62A79.49,79.49,0,0,1,436.22,355a95.07,95.07,0,0,1,8.51-9.86,111.82,111.82,0,0,1,8.7-7.88c2.54-2.08,5.18-4.05,7.89-5.9,2-1.36,4-2.66,6.09-3.88,1.09-.64,2.18-1.27,3.31-1.85l.32-.16a.75.75,0,0,0-.66-1.35c-.7.34-1.37.72-2,1.1-1.76,1-3.48,2-5.17,3.12q-3.76,2.43-7.34,5.14-4.44,3.36-8.53,7.13a100.37,100.37,0,0,0-8.76,9.1,85.87,85.87,0,0,0-8,11.05,73.71,73.71,0,0,0-6.3,13q-.47,1.31-.9,2.61a7.68,7.68,0,0,0-.75,2.76.83.83,0,0,0,.51.7Z" style="fill:#fff"></path></g><g id="freepik--plants--inject-3"><path d="M96.84,355.84S97,336.23,89.29,320s-19.77-27.21-32-29.72-23.51,7.59-11.31,17,34.61,20.3,41.77,50.78Z" style="fill:#BA68C8"></path><path d="M96.84,355.84S97,336.23,89.29,320s-19.77-27.21-32-29.72-23.51,7.59-11.31,17,34.61,20.3,41.77,50.78Z" style="opacity:0.15"></path><path d="M91.74,352.45a.5.5,0,0,1-.5-.47c-1.88-31.39-27.74-51.8-40.52-55.28a.5.5,0,0,1-.35-.61.51.51,0,0,1,.62-.36c13,3.55,39.34,24.3,41.25,56.19a.52.52,0,0,1-.47.53Z" style="fill:#fff"></path><path d="M98.42,382.76a24.09,24.09,0,0,0,4-22.5A18.62,18.62,0,0,0,99,354c-1.23-1.45-3-2.2-4.44-3.41-3.1-2.57-6.7-5.3-7.82-9.38-.9-3.25-.71-6.33-2.51-9.38a9.46,9.46,0,0,0-4.78-4.2c-2.65-1-5.57-.34-8.37,0-4,.45-7-.93-10.46-2.77-3.81-2-8.26-3.58-12.39-2.35a10,10,0,0,0-6.4,13.41c.92,2.24,2.62,4.06,3.87,6.14s1.91,4.46,1,6.73c-.7,1.68-2,3-2.52,4.71C42.7,358,43.53,362,48,364.32c4.67,2.39,12,.59,14.34,6.46.88,2.23.91,4.7,1.39,7.05a19,19,0,0,0,7.69,11.68c5.37,3.73,12.66,2.82,18.23.22A24.52,24.52,0,0,0,98.42,382.76Z" style="fill:#BA68C8"></path><path d="M56.32,354.36a.51.51,0,0,0,.32-.05A28.61,28.61,0,0,1,81,356.07a.54.54,0,0,0,.73-.22.53.53,0,0,0-.21-.73,29.67,29.67,0,0,0-25.29-1.78.54.54,0,0,0,.14,1Z" style="fill:#fff"></path><path d="M91.24,382.93a.5.5,0,0,1-.51-.48c-.93-22.6-23.62-46.5-38.83-53a.5.5,0,0,1-.27-.66.51.51,0,0,1,.67-.26c15.45,6.62,38.49,30.92,39.44,53.9a.51.51,0,0,1-.49.53Z" style="fill:#fff"></path></g></g><g id="freepik--Device--inject-3"><g id="freepik--Mobile--inject-3"><path d="M216.48,60,103.3,125.32A8.47,8.47,0,0,0,99.47,132V398.53c0,2.44,1.72,3.43,3.83,2.2l113.18-65.34a8.51,8.51,0,0,0,3.83-6.64V62.18C220.31,59.74,218.59,58.74,216.48,60ZM214.8,309c0,2.09-1.47,3.42-3.28,4.46L107.88,373.32c-1.8,1-3.28.2-3.28-1.9V149.77h0a6.52,6.52,0,0,1,3.27-5.65L211.51,84.25a2.19,2.19,0,0,1,3.29,1.89h0Z" style="fill:#455a64"></path><path d="M214.8,309c0,2.09-1.47,3.42-3.28,4.46L107.88,373.32c-1.8,1-3.28.2-3.28-1.9V149.77h0a6.52,6.52,0,0,1,3.27-5.65L211.51,84.25a2.19,2.19,0,0,1,3.29,1.89h0Z" style="fill:#263238"></path><path d="M107.88,373.32l103.64-59.84a9.4,9.4,0,0,0,2-1.45L104.6,250.69V371.42C104.6,373.52,106.08,374.36,107.88,373.32Z" style="fill:#37474f"></path><path d="M206.41,305.11V87.2l-98.54,56.92a6.52,6.52,0,0,0-3.27,5.65V366.46l98.53-56.89C204.94,308.53,206.41,307.2,206.41,305.11Z" style="fill:#BA68C8"></path><path d="M102.82,401a8.57,8.57,0,0,1-7.18-.24l-4.38-2.53a8.44,8.44,0,0,1-3.84-6.63V125a7.34,7.34,0,0,1,.66-2.86c.14-.31.29-.61.46-.92a0,0,0,0,0,0,0l12,7h0a11.13,11.13,0,0,0-.66,1.4,7.08,7.08,0,0,0-.47,2.37V398.53C99.47,400.78,100.93,401.8,102.82,401Z" style="fill:#263238"></path><path d="M163.27,347.3h0c2.45,0,2.71,2.75,2.71,3.93a15.31,15.31,0,0,1-6.83,11.82,5.43,5.43,0,0,1-2.64.84c-2.45,0-2.71-2.75-2.71-3.93a15.36,15.36,0,0,1,6.82-11.83,5.58,5.58,0,0,1,2.65-.83" style="fill:#BA68C8"></path><path d="M159.81,96.91c1-.6,1.87-.12,1.87,1.08a4.15,4.15,0,0,1-1.87,3.24c-1,.59-1.88.11-1.88-1.08A4.11,4.11,0,0,1,159.81,96.91Z" style="fill:#263238"></path><path d="M147.73,112.7c.92-.53,1.66-.1,1.66,1a3.65,3.65,0,0,1-1.66,2.87c-.92.53-1.66.1-1.66-1A3.67,3.67,0,0,1,147.73,112.7Z" style="fill:#263238"></path><path d="M153.28,109.42l18.59-10.73c1-.59,1.84-.17,1.84.93a4,4,0,0,1-1.84,3.06l-18.59,10.73c-1,.59-1.84.17-1.84-.93A4,4,0,0,1,153.28,109.42Z" style="fill:#263238"></path><path d="M220.27,61.57c-.28-2-1.87-2.71-3.78-1.6l-113.2,65.35a7.69,7.69,0,0,0-2.7,2.86l-12-7a7.81,7.81,0,0,1,2.71-2.84L204.43,53a8.47,8.47,0,0,1,7.66,0l4.4,2.52A8.62,8.62,0,0,1,220.27,61.57Z" style="fill:#37474f"></path><g id="freepik--device--inject-3"><g id="freepik--mobile--inject-3"><path d="M190.58,69.66a4.21,4.21,0,0,1-3.83.07,1.21,1.21,0,0,1-.73-1c0-.28,0-1.32,0-1.61a1.46,1.46,0,0,1,.86-1.15l12.13-7a4.26,4.26,0,0,1,3.84-.07,1.24,1.24,0,0,1,.72,1c0,.29,0,1.37,0,1.65a1.47,1.47,0,0,1-.86,1.16Z" style="fill:#BA68C8"></path><path d="M190.58,69.66a4.21,4.21,0,0,1-3.83.07,1.21,1.21,0,0,1-.73-1c0-.28,0-1.32,0-1.61a1.46,1.46,0,0,1,.86-1.15l12.13-7a4.26,4.26,0,0,1,3.84-.07,1.24,1.24,0,0,1,.72,1c0,.29,0,1.37,0,1.65a1.47,1.47,0,0,1-.86,1.16Z" style="opacity:0.25"></path><path d="M190.58,68.07l12.13-7c1.1-.64,1.15-1.63.13-2.22a4.26,4.26,0,0,0-3.84.07l-12.13,7c-1.09.63-1.15,1.62-.12,2.21A4.24,4.24,0,0,0,190.58,68.07Z" style="fill:#BA68C8"></path><path d="M190.58,68.07l12.13-7c1.1-.64,1.15-1.63.13-2.22a4.26,4.26,0,0,0-3.84.07l-12.13,7c-1.09.63-1.15,1.62-.12,2.21A4.24,4.24,0,0,0,190.58,68.07Z" style="opacity:0.30000000000000004"></path></g></g><g id="freepik--device--inject-3"><g id="freepik--mobile--inject-3"><path d="M95,165.17a4.22,4.22,0,0,0-1.86-3.35,1.22,1.22,0,0,0-1.27-.11c-.23.14-1.15.65-1.39.8a1.46,1.46,0,0,0-.57,1.32v29.72a4.24,4.24,0,0,0,1.85,3.35A1.27,1.27,0,0,0,93,197c.26-.13,1.19-.67,1.44-.82a1.46,1.46,0,0,0,.57-1.32Z" style="fill:#BA68C8"></path><path d="M95,165.17a4.22,4.22,0,0,0-1.86-3.35,1.22,1.22,0,0,0-1.27-.11c-.23.14-1.15.65-1.39.8a1.46,1.46,0,0,0-.57,1.32v29.72a4.24,4.24,0,0,0,1.85,3.35A1.27,1.27,0,0,0,93,197c.26-.13,1.19-.67,1.44-.82a1.46,1.46,0,0,0,.57-1.32Z" style="opacity:0.30000000000000004"></path><path d="M93.62,166v29.72c0,1.26-.83,1.8-1.86,1.21a4.24,4.24,0,0,1-1.85-3.35V163.83c0-1.27.83-1.81,1.85-1.22A4.24,4.24,0,0,1,93.62,166Z" style="fill:#BA68C8"></path><path d="M93.62,166v29.72c0,1.26-.83,1.8-1.86,1.21a4.24,4.24,0,0,1-1.85-3.35V163.83c0-1.27.83-1.81,1.85-1.22A4.24,4.24,0,0,1,93.62,166Z" style="opacity:0.4"></path><path d="M95,205a4.22,4.22,0,0,0-1.86-3.35,1.22,1.22,0,0,0-1.27-.11c-.23.14-1.15.65-1.39.8a1.46,1.46,0,0,0-.57,1.32v14A4.24,4.24,0,0,0,91.76,221a1.22,1.22,0,0,0,1.23.13c.26-.13,1.19-.67,1.44-.82A1.45,1.45,0,0,0,95,219Z" style="fill:#BA68C8"></path><path d="M95,205a4.22,4.22,0,0,0-1.86-3.35,1.22,1.22,0,0,0-1.27-.11c-.23.14-1.15.65-1.39.8a1.46,1.46,0,0,0-.57,1.32v14A4.24,4.24,0,0,0,91.76,221a1.22,1.22,0,0,0,1.23.13c.26-.13,1.19-.67,1.44-.82A1.45,1.45,0,0,0,95,219Z" style="opacity:0.30000000000000004"></path><path d="M93.62,205.75v14c0,1.26-.83,1.81-1.86,1.21a4.24,4.24,0,0,1-1.85-3.35v-14c0-1.26.83-1.81,1.85-1.22A4.26,4.26,0,0,1,93.62,205.75Z" style="fill:#BA68C8"></path><path d="M93.62,205.75v14c0,1.26-.83,1.81-1.86,1.21a4.24,4.24,0,0,1-1.85-3.35v-14c0-1.26.83-1.81,1.85-1.22A4.26,4.26,0,0,1,93.62,205.75Z" style="opacity:0.4"></path></g></g></g><g id="freepik--Doctor--inject-3"><path d="M128.14,180.19a10.5,10.5,0,0,0,.4,1.43c.65,1.76,1.82,3.42,1.72,5.3-.11,2.12-1.78,3.76-3.06,5.45a17.58,17.58,0,0,0-2.66,15.8,34.78,34.78,0,0,0,5.06,9l4.83,6.85a16.46,16.46,0,0,0,5.46,4.61,31.34,31.34,0,0,0,13.54,4,36,36,0,0,0,22.16-5.81c6.95-4.6,3.89-16.4,11-20.71,8.6-5.2,12.7-23.26,2.16-30.8,0,0,1.7-11.06-1.42-13.88a19.36,19.36,0,0,0-11-4.46c-5.58-.58-11.17.51-16.74.49a131.19,131.19,0,0,0-17.15,1.07c-2,.27-4.82,1-5.9,2.95a4.38,4.38,0,0,0-.24,2.41,5.57,5.57,0,0,1-1.3,3.51c-1.24,1.5-3,2.51-4.32,3.92A10.22,10.22,0,0,0,128.14,180.19Z" style="fill:#263238"></path><path d="M183.64,196.15c9,.25,10.17,2.17,18.23,10.15,6.7,6.63,28.9,27.12,28.9,27.12l26.6,7.08-6.28,16.23s-6-.25-18-.26c-7.37,0-9.93-1.65-17.35-6.6-3.78-2.53-25.11-16.49-25.11-16.49Z" style="fill:#e6e6e6"></path><polygon points="286.8 207.68 238.05 224.86 224.61 282.86 225.7 284.02 272.05 266.73 287.88 208.84 286.8 207.68" style="fill:#BA68C8"></polygon><polygon points="239.13 226.02 225.7 284.02 224.61 282.86 238.05 224.86 239.13 226.02" style="opacity:0.35000000000000003"></polygon><polygon points="287.88 208.84 239.13 226.02 225.7 284.02 272.05 266.73 287.88 208.84" style="opacity:0.25"></polygon><g style="opacity:0.2"><path d="M264.8,254.93c.45,1.14,4.19,3.65,9.6,3.2l.91-3.34Z"></path></g><g style="opacity:0.1"><path d="M273.2,220.72l.4-1.95c.22-1.07-2.64-.51-6.39,1.26l-8.8,2.66c-3.75,1.77-7.29,3.09-7.52,4.16l-.4,1.94Z"></path></g><path d="M276.1,211.92c.14-.67-1-.53-2.53-.12l-2.81.95s1.15-2.82-5.5-1c-7.31,2-7.47,5.63-7.47,5.63a31.44,31.44,0,0,1-3.51,1.28c-2.43.79-2.69,1.26-2.89,1.94l-.36,1.23,24.85-8.74S276,212.59,276.1,211.92Z" style="fill:#37474f"></path><path d="M273.48,215.65c-2.3,1-3.25,1.55-3.6,3.21-.39,1.89-.47,2.68-.47,2.68l-12.94,5.1s.7-2.79.87-3.72-1.54-.93-3.78.1l.53-2.32,20.13-7.47Z" style="fill:#37474f"></path><path d="M273.86,220.75s.19-.87.41-1.95-2.64-.51-6.39,1.26l-8.8,2.66c-3.75,1.77-7.3,3.09-7.52,4.16l-.4,2Z" style="fill:#37474f"></path><path d="M282.46,228.68s-1.73,6.36-2.19,8-8.44,5.29-12.43,5.79c-7.64.95-8.51,2.6-6.68,8,1.7,5,6.67,6.9,13.57,6.09,3.24-.38,7.71-3.25,9.47-8.26,2.24-6.4,1-13.23,1.93-17S284.4,226.45,282.46,228.68Z" style="fill:#ffa8a7"></path><path d="M206.92,316.14l-5.17,3-2.17,1.25-28.44,16.41L167.26,339l-6.55,3.78,2-20.41,3.82-39.52,0-.41.18-1.77,5-51.67,2.19-22.61.77-8.11.26-2.62.14,0a13.21,13.21,0,0,1,7.08,0,9.39,9.39,0,0,1,1.5.6c3,1.49,5,4.39,6.66,7.44a23.29,23.29,0,0,1,1.1,2.29,51.09,51.09,0,0,1,2.84,9.18h0c1.31,5.8,3,11.73,3.67,21.08a37.4,37.4,0,0,1-.38,7.2s0,0,0,0a160,160,0,0,0-.23,18.94C198.15,276.69,201.75,283.17,206.92,316.14Z" style="fill:#e0e0e0"></path><path d="M199.58,320.37l-28.44,16.41L167.26,339l-6.55,3.78-4.51,2.6-27.38,15.8c.29-11,.42-22.93.16-34.2-.08-3.77-.11-7.62.05-11.56.52-13.68,3.12-28.35,12.44-43.79l.43-.78C143,277.38,153,281.62,162,282.62l1,.09c1.13.11,2.3.16,3.51.16h.76c7.61-.07,16.62-1.86,27-5.37,1,5.8,2,13.41,3.07,22.31q.72,6,1.46,12.79h0C199,315.13,199.31,317.72,199.58,320.37Z" style="fill:#ffa8a7"></path><path d="M201.75,319.12l-2.17,1.25-28.44,16.41L167.26,339l-6.55,3.78-4.51,2.6-27.38,15.8-3,1.73c.15-11.84.25-23.44.24-30.72,0-6.77.15-12.79.52-18.13.73-10.54,2.25-18.47,4.79-24.47a129,129,0,0,1,10.54-18.85s2.5,8.44,21.2,9.77h.12q1.65.12,3.48.15l1.42,0c23.28,0,25.85-5.87,25.85-5.87A244.28,244.28,0,0,1,199.37,301q.74,4.68,1.43,10C201.14,313.6,201.46,316.3,201.75,319.12Z" style="fill:#BA68C8"></path><path d="M201.75,319.12l-2.17,1.25-28.44,16.41L167.26,339l-6.55,3.78-4.51,2.6-27.38,15.8-3,1.73c.15-11.84.25-23.44.24-30.72,0-6.77.15-12.79.52-18.13.73-10.54,2.25-18.47,4.79-24.47a129,129,0,0,1,10.54-18.85s2.5,8.44,21.2,9.77h.12q1.65.12,3.48.15l1.42,0c23.28,0,25.85-5.87,25.85-5.87A244.28,244.28,0,0,1,199.37,301q.74,4.68,1.43,10C201.14,313.6,201.46,316.3,201.75,319.12Z" style="opacity:0.4"></path><path d="M188.4,305.85s-2.6,8.26-13.54,12.89l-.52,2.53-3.2,15.51L167.26,339l2.32-17.11,1-7.44A29.15,29.15,0,0,0,188.4,305.85Z" style="opacity:0.2"></path><path d="M155.13,198.05l-11,1.16c-7.28,1.78-10.57,5-11.32,11.43-.35,3-2.16,11,.38,21,2.3,9.08,8.44,31.3,8.44,31.3S127.5,281.38,124.94,313c25.86,16.88,65.53,7.81,76.26-2.39-.9-9.66-7.07-36.17-7.84-44.78,0,0,.57-13.45,1.64-19.28,8.18-8.93,7.14-17.47,3.47-24.36-6.78-12.72-17-23.9-20.31-23.89Z" style="fill:#BA68C8"></path><path d="M155.13,198.05l-11,1.16c-7.28,1.78-10.57,5-11.32,11.43-.35,3-2.16,11,.38,21,2.3,9.08,8.44,31.3,8.44,31.3S127.5,281.38,124.94,313c25.86,16.88,65.53,7.81,76.26-2.39-.9-9.66-7.07-36.17-7.84-44.78,0,0,.57-13.45,1.64-19.28,8.18-8.93,7.14-17.47,3.47-24.36-6.78-12.72-17-23.9-20.31-23.89Z" style="fill:#fff;opacity:0.7000000000000001"></path><path d="M164.66,266.9c0,.2,0,.38,0,.53l0,.26a1.62,1.62,0,0,1,0,.25v0c-.38,4-.83,8.25-1.31,12.58,0,0,0,0,0,.06-.07.7-.15,1.4-.23,2.11-1.47,13.05-3.22,27-4.57,39.7-.33,3.08-.63,6.08-.9,9-.42,4.37-.87,9.16-1.33,14l-27.38,15.8-3,1.73-7.65,4.41c1.54-15.15,5.13-50.25,7.13-66.09.23-1.79.53-3.58.87-5.36l.27-1.3.12-.53c.13-.6.26-1.18.4-1.77s.27-1.09.4-1.62c.31-1.21.64-2.4,1-3.56.17-.56.33-1.12.51-1.67s.33-1.1.51-1.64c.36-1.08.71-2.14,1.08-3.17a.14.14,0,0,1,0-.06c.17-.49.35-1,.53-1.46.24-.68.49-1.34.74-2l.3-.79c.15-.36.28-.71.42-1.06.49-1.23,1-2.4,1.45-3.49.1-.24.21-.48.31-.71s.26-.57.38-.85c.3-.7.6-1.35.89-2,.12-.28.25-.55.37-.81s.29-.6.42-.88l.19-.4.2-.39a.37.37,0,0,1,.07-.14,1.36,1.36,0,0,1,.1-.21.84.84,0,0,0,.06-.14,3.61,3.61,0,0,0,.22-.44l.67-1.3c0-.07.07-.12.09-.18l.26-.48v0l-8.32-34.5-4.14-17.14,0-.28h0c.19-1.52,1.46-8.69,8.78-10.87a61,61,0,0,1,12.63-1.88c1.64-.1,3.12-.14,4.33-.17l1.91,0h1.15a.31.31,0,0,1,0,.07c.06.15.23.6.49,1.3l0,0a1.74,1.74,0,0,0,.12.34.43.43,0,0,1,0,.05c1.8,4.94,6.85,19.32,9.36,31.81.44,2.16.8,4.27,1.06,6.27C166.37,244.08,165.82,254.54,164.66,266.9Z" style="fill:#fafafa"></path><path d="M138.52,246.31s1-4.93,2.47-15.58c1.71-12.28,1.1-18.35-.75-22.23l-10.43,19.89,8.32,34.5v0s-8.55,15.66-12,33h0c8.18-23.11,17.13-30,17.13-30Z" style="fill:#e6e6e6"></path><path d="M175.06,190.35c3.24,0,3.62.54,6.41,4.28,1.66,2.23,12.17,19.58,12.17,19.58s-8.36-11-14.67-14.34a14.09,14.09,0,0,0-3.9-1.56Z" style="fill:#ebebeb"></path><path d="M151.1,227.22c0-1-.1-3.16-.27-5.88C150,208,149.6,196,154.1,195l.39,1.84c-3.28.71-2.2,17.88-1.79,24.34.18,2.78.32,5,.27,6.08Z" style="fill:#BA68C8"></path><path d="M136.1,139.88l7,5.73a4.25,4.25,0,0,0-.59-6.15A4.68,4.68,0,0,0,136.1,139.88Z" style="fill:#263238"></path><path d="M154.38,191.2c0-4.39-10.23-11-15.51-20.23s-2.64-24.41,4.6-26.74c.06,0,.26-1.95.29-2.09a17.22,17.22,0,0,1,2-5c2.95-5.08,9.2-9,15-9.82,22.93-3.34,33.47,5.57,37.68,15.37a23.87,23.87,0,0,1,1.78,10.42,12,12,0,0,1-9.28,11.15Z" style="fill:#263238"></path><path d="M186.19,139.41c4.49,2,8.76,8.83,8.69,28.05-.06,16.3-5.06,20.42-7.58,21.63s-7.45.59-12.24-.14v9.36s3.59,3.53,2.33,5.75-5.91,4.1-13.14,1.83c-8.19-2.57-10.06-8-10.06-8L154,177.35s-2.75,2.89-7.6-1.35c-4-3.51-5.44-9.52-2.43-12.82s6.87-3.56,10.35.13l2.5-1.32c4.46-.52,11-1.27,15.82-3.7C185,152,186.28,145.18,186.19,139.41Z" style="fill:#ffa8a7"></path><path d="M154.39,160.65l.06,9a4.24,4.24,0,0,0,4.35-4.38A4.67,4.67,0,0,0,154.39,160.65Z" style="fill:#263238"></path><path d="M186.61,161.93a2.16,2.16,0,1,0,2.24-2.18A2.19,2.19,0,0,0,186.61,161.93Z"></path><path d="M169.36,162.89a2.36,2.36,0,0,0,2.23,2.49A2.39,2.39,0,0,0,174,163a2.32,2.32,0,1,0-4.64-.15Z"></path><path d="M192.33,157.9l-5.57-2.21a2.88,2.88,0,0,1,3.86-1.71A3.1,3.1,0,0,1,192.33,157.9Z"></path><polygon points="181.33 160.17 181.05 173.51 188.22 171.92 181.33 160.17" style="fill:#f28f8f"></polygon><path d="M172.88,176.23l7,2.17a3.56,3.56,0,0,1-4.46,2.68A4,4,0,0,1,172.88,176.23Z" style="fill:#b16668"></path><path d="M176.75,181.2a3.69,3.69,0,0,0-3.69-3.66,2.85,2.85,0,0,0-.29,0,3.9,3.9,0,0,0,2.63,3.51A3.29,3.29,0,0,0,176.75,181.2Z" style="fill:#f28f8f"></path><path d="M175.06,189c-5.05-.6-15.46-3.5-17.15-7.73a11.12,11.12,0,0,0,3.73,5.37c3.14,2.7,13.42,5.51,13.42,5.51Z" style="fill:#f28f8f"></path><path d="M154.14,190.4c-1.32-.27-2.49.31-3.57,2.13s-3.45,5.7-3.45,5.7-1.23,12.79,0,16c1.06,2.76,12.75,13.11,12.75,13.11s-3.05,11.49-3.16,15.26,7,18.08,7.86,25.4c0,0,2.53-23,1.44-31.29-1.88-14.37-8.62-32.93-11.8-38.83Z" style="fill:#ebebeb"></path><path d="M161.29,238a40,40,0,0,0-2.75-5.37h0c-1.66-2.75-3.71-5.39-5.56-6.07a2.56,2.56,0,0,0-.88-.18H152a2.42,2.42,0,0,0-.88.22c-1.46.65-3,2.64-4.25,4.93a40.85,40.85,0,0,0-3.15,7.22c-.48,1.55-.27,4.84.3,8.6,1.12,7.3,3.61,16.42,5,18.22a16,16,0,0,0,3.57,3.25,11.83,11.83,0,0,1-2.65,1.31,4.79,4.79,0,0,1-1.65.29l0,1.31h.16a6,6,0,0,0,1.75-.29,13.47,13.47,0,0,0,3.67-1.85,13.49,13.49,0,0,0,3.81,1.54,5.61,5.61,0,0,0,1.93.12l-.16-1.3a5.19,5.19,0,0,1-1.67-.13,12,12,0,0,1-2.76-1.1,16.39,16.39,0,0,0,3.3-3.54c.78-1.19,1.74-5.29,2.46-10,.44-2.81.8-5.83,1-8.58C162,242.76,161.9,239.47,161.29,238Zm-4.13,26.46a15.22,15.22,0,0,1-3.41,3.53,15,15,0,0,1-3.7-3.23c-1.3-1.69-3.7-10.59-4.78-17.61-.55-3.55-.75-6.62-.31-8a38,38,0,0,1,3.22-7.28c1.38-2.38,2.85-4.13,3.87-4.17h0c1.21,0,3.17,2.19,5,5,.37.55.72,1.15,1.06,1.75a37.35,37.35,0,0,1,2,4c.55,1.36.61,4.43.36,8-.14,2-.36,4.09-.64,6.17C159.07,258.05,158,263.14,157.16,264.43Z" style="fill:#455a64"></path><path d="M161.4,270.48a1.93,1.93,0,1,1-2-1.85A1.93,1.93,0,0,1,161.4,270.48Z" style="fill:#263238"></path><path d="M150.19,271a1.93,1.93,0,1,1-2-1.84A1.92,1.92,0,0,1,150.19,271Z" style="fill:#263238"></path><path d="M161.62,246.58l-1.11-.08a.44.44,0,0,1-.4-.46c.23-3.67.11-6.37-.34-7.45-1.94-4.74-6-10.68-7.71-10.61s-5.25,6.34-6.79,11.22c-.35,1.12-.24,3.82.29,7.46a.43.43,0,0,1-.35.49l-1.1.17a.44.44,0,0,1-.49-.38c-.61-4.08-.68-6.88-.22-8.33.82-2.62,4.69-12.43,8.58-12.59s8.58,9.28,9.62,11.83c.57,1.4.74,4.2.48,8.31A.45.45,0,0,1,161.62,246.58Z" style="fill:#BA68C8"></path><path d="M137.64,199.91c-7.32-.12-10.7,2.35-15.34,8.56-3.68,4.93-18,31.57-22.75,39.35L73.69,234c-5.23-3.61-6.92-9.31-10.23-12.64s-6.74-4-10.38-6.75-5.12-4.89-6.17-2.32,3,6.73,3.77,7.76,4.83,3.32-.44,3.4S34.54,218.07,32,217.1s-2.39,2.06-1.14,4,1.19,7.42,3.3,10.59c2.23,3.36,3.45,4.82,8.42,7,4.62,2,14.32,2.8,19.23,5.87s17.08,13.89,24.48,20.38c9.41,8.25,15.9,9.76,21.14,4.81,5.09-5.33,10.25-11.58,12.77-14.75,6.79-8.55,17.53-28,17.53-28S142.38,217,137.64,199.91Z" style="fill:#ffa8a7"></path><path d="M138.65,199.18c-10.78,0-14,3.9-19.52,12.91s-19.68,34.8-19.68,34.8L79.06,236.21s-3.67,8.08-7.57,16.41c0,0,11.54,10,17,14.73s12.7,8.44,19.41,2.65c7.17-6.18,30.42-38.29,30.42-38.29C143.84,221.69,142.61,206.5,138.65,199.18Z" style="fill:#f0f0f0"></path><path d="M99.45,246.89c3.33,3.92,7.36,8.33,7.18,11.8,0,0,2.28-3.08-5.73-14.43Z" style="fill:#e0e0e0"></path></g></g><g id="freepik--Icons--inject-3"><polygon points="60.88 150.72 52.54 155.5 52.57 145.92 46.33 142.32 31.78 150.72 31.78 167.52 17.23 175.92 17.23 192.72 23.47 196.32 31.78 191.52 31.78 201.13 38.02 204.73 52.57 196.32 52.57 179.52 67.12 171.12 67.12 154.32 60.88 150.72" style="fill:#BA68C8"></polygon><polygon points="23.47 179.52 23.47 196.32 38.02 187.92 38.02 204.73 52.57 196.32 52.57 179.52 67.12 171.12 67.12 154.32 52.52 162.75 52.57 145.92 38.02 154.32 38.02 171.12 23.47 179.52" style="fill:#BA68C8"></polygon><g style="opacity:0.2"><polygon points="23.47 196.32 17.23 192.72 17.23 175.92 23.47 179.52 23.47 196.32"></polygon><polygon points="38.02 154.32 31.78 150.72 31.78 167.52 38.02 171.12 38.02 154.32"></polygon><polygon points="38.02 204.73 31.78 201.13 31.78 191.52 38.02 187.92 38.02 204.73"></polygon></g><g style="opacity:0.5"><polygon points="38.02 171.12 31.78 167.52 17.23 175.92 23.47 179.52 38.02 171.12" style="fill:#fff"></polygon><polygon points="52.57 145.92 46.33 142.32 31.78 150.72 38.02 154.32 52.57 145.92" style="fill:#fff"></polygon><polygon points="67.12 154.32 60.88 150.72 52.54 155.5 52.52 162.75 67.12 154.32" style="fill:#fff"></polygon></g><g id="freepik--Heart--inject-3"><path d="M300.2,117h0l0,0a5.72,5.72,0,0,0-.85-.61c-1.06-.63-5.86-3.39-6.11-3.54-2.54-1.62-6.56-1.26-10.14.55-5.13,2.59-9.4,8.06-12.66,17.17,0,0-3.3-2.37-4.37-3-2.65-1.45-5.75-.75-9.24,1.52-3.93,2.56-6.61,5.88-9.06,10.9l0,.09h0a32.51,32.51,0,0,0-3.4,13.7c0,10.53,4.31,15.55,9.92,19.32,1.6,1.08,5.83,3.35,6.25,3.63a35.42,35.42,0,0,0,11.07,4.84l5.53,1.29,5.53-7.67a180.36,180.36,0,0,0,11.07-17.62c5.61-10.25,10-20.29,9.92-30.78C303.58,122.3,302.29,119,300.2,117Z" style="fill:#BA68C8"></path><path d="M300.2,117h0l0,0a5.72,5.72,0,0,0-.85-.61c-1.06-.63-5.86-3.39-6.11-3.54-2.54-1.62-6.56-1.26-10.14.55-5.13,2.59-9.4,8.06-12.66,17.17,0,0-3.3-2.37-4.37-3-2.65-1.45-5.75-.75-9.24,1.52-3.93,2.56-6.61,5.88-9.06,10.9l0,.09h0a32.51,32.51,0,0,0-3.4,13.7c0,10.53,4.31,15.55,9.92,19.32,1.6,1.08,5.83,3.35,6.25,3.63a35.42,35.42,0,0,0,11.07,4.84l5.53,1.29,5.53-7.67a180.36,180.36,0,0,0,11.07-17.62c5.61-10.25,10-20.29,9.92-30.78C303.58,122.3,302.29,119,300.2,117Z" style="opacity:0.30000000000000004"></path><path d="M300.2,117h0l0,0a5.72,5.72,0,0,0-.85-.61c-1.06-.63-5.86-3.39-6.11-3.54-2.54-1.62-6.56-1.26-10.14.55-5.13,2.59-9.4,8.06-12.66,17.17,0,0-3.3-2.37-4.37-3-2.65-1.45-5.75-.75-9.24,1.52-3.93,2.56-6.61,5.88-9.06,10.9l0,.09h0c-.11.22-.2.44-.3.66l42,24.22c1.49-2.42,2.94-4.87,4.32-7.39,5.61-10.25,10-20.29,9.92-30.78C303.58,122.3,302.29,119,300.2,117Z" style="fill:#BA68C8"></path><path d="M300.2,117h0l0,0a5.72,5.72,0,0,0-.85-.61c-1.06-.63-5.86-3.39-6.11-3.54-2.54-1.62-6.56-1.26-10.14.55-5.13,2.59-9.4,8.06-12.66,17.17,0,0-3.3-2.37-4.37-3-2.65-1.45-5.75-.75-9.24,1.52-3.93,2.56-6.61,5.88-9.06,10.9l0,.09h0c-.11.22-.2.44-.3.66l42,24.22c1.49-2.42,2.94-4.87,4.32-7.39,5.61-10.25,10-20.29,9.92-30.78C303.58,122.3,302.29,119,300.2,117Z" style="opacity:0.15"></path><path d="M270.41,130.53h0l5.62,7.33,9.06-10.72-10.24-5.91A46,46,0,0,0,270.41,130.53Z" style="fill:#BA68C8"></path><path d="M270.41,130.53h0l5.62,7.33,9.06-10.72-10.24-5.91A46,46,0,0,0,270.41,130.53Z" style="opacity:0.30000000000000004"></path><path d="M300.2,117h0l0,0c-2.45-2.19-6.91-2-10.85,0-5.37,2.72-9.81,8.59-13.13,18.53-3.32-6.1-7.76-6.29-13.13-2.8-3.94,2.56-6.62,5.88-9.06,10.9l-.05.09h0a32.69,32.69,0,0,0-3.39,13.71c0,10.53,4.32,15.55,9.92,19.32a35.42,35.42,0,0,0,11.07,4.84l5.53,1.29,5.53-7.67a180.36,180.36,0,0,0,11.07-17.62c5.61-10.25,10-20.29,9.92-30.78C303.58,122.3,302.29,119,300.2,117Z" style="fill:#BA68C8"></path><g style="opacity:0.07"><path d="M295.48,116a6.43,6.43,0,0,1,4.27,1.37.31.31,0,0,0,.09.11c2.06,1.88,3.21,5.22,3.22,9.38,0,10.95-5,21.58-9.85,30.52a178.18,178.18,0,0,1-11,17.56l-5.31,7.39-5.17-1.21a35.07,35.07,0,0,1-10.91-4.76c-5-3.4-9.72-8-9.68-18.88A32.27,32.27,0,0,1,254.43,144l0-.09c2.46-5.05,5.11-8.24,8.87-10.68a11.3,11.3,0,0,1,6-2.2c2.54,0,4.63,1.57,6.39,4.8a.51.51,0,0,0,.47.28h.05a.54.54,0,0,0,.46-.36c3.17-9.49,7.38-15.45,12.86-18.22a13.43,13.43,0,0,1,5.92-1.53m0-.53a13.92,13.92,0,0,0-6.16,1.58c-5.37,2.72-9.81,8.59-13.13,18.53-1.92-3.54-4.22-5.09-6.86-5.09a11.89,11.89,0,0,0-6.27,2.29c-3.94,2.56-6.62,5.88-9.06,10.9l-.05.09a32.69,32.69,0,0,0-3.39,13.71c0,10.53,4.32,15.55,9.92,19.32a35.42,35.42,0,0,0,11.07,4.84l5.53,1.29,5.53-7.67a180.36,180.36,0,0,0,11.07-17.62c5.61-10.25,10-20.29,9.92-30.78,0-4.51-1.31-7.86-3.4-9.78h0l0,0a6.93,6.93,0,0,0-4.69-1.55Z"></path></g><path d="M299.59,145.35l-10.76,6.22-4-14.55a1,1,0,0,0-1-.75,1,1,0,0,0-1,.8l-6.23,28.46-5.24-14.34a1,1,0,0,0-2,.08l-3.54,12.57-11.84,6.84a18.57,18.57,0,0,0,1.26,1.63l12-6.91a1.05,1.05,0,0,0,.48-.61l2.79-9.92,5.37,14.66a1,1,0,0,0,1,.67,1,1,0,0,0,.93-.8l6.1-27.82,3.22,11.81a1,1,0,0,0,1.49.61l9.56-5.51C298.73,147.44,299.17,146.4,299.59,145.35Z" style="fill:#fff"></path></g></g><g id="freepik--Character--inject-3"><g id="freepik--character--inject-3"><path d="M344.75,412.79a7.83,7.83,0,0,0-.1,4.17c.4.84,2.9,3.6,8,4.6s12.11,0,15.13-.18,12.5,1,15.51,1.38c4.74.64,8.38-.4,10.15-2.11a3.2,3.2,0,0,0,.71-2.5,12.36,12.36,0,0,0-.5-3.37Z" style="fill:#263238"></path><path d="M392.87,409.82c.09.39.18.79.26,1.19a19.86,19.86,0,0,1,.43,6.14c-.61,1.5-2.28,2.33-3.63,2.75-3.57,1.14-6.28,1-10.23.21a72.42,72.42,0,0,0-12-.74c-3.11.21-7.39.81-10.5.52a24.76,24.76,0,0,1-7.73-1.58c-2.07-.88-4.19-2-4.7-4.16-.61-4.5,1.28-6.48,3.41-7.74s5.16-1.16,8.4-1.37c2.93-.2,5.07-.2,7.68-.4a37.91,37.91,0,0,0,6.7-.93c2-.62,4-3.13,4.82-3.22,0,0,13.05-.1,14.29,0,1.44.12,1.88,4.58,2.06,5.55.14.76.17,1.58.37,2.31C392.63,408.84,392.75,409.33,392.87,409.82Z" style="fill:#37474f"></path><path d="M352.66,419.29c-.41-3.24-1-10.26,5-14.32l.75,0a14.84,14.84,0,0,0-8.25,0c-4.77,1.27-6.89,5.13-5.7,9.21C344.48,414.14,345.54,418.09,352.66,419.29Z" style="fill:#fafafa"></path><path d="M370.07,403.94c-1.93,1.71-2.6,5.6-2.6,5.6-.25,1.46-2.89,1.68-2.64.27a15.2,15.2,0,0,1,2.29-5.42A4.55,4.55,0,0,1,370.07,403.94Z" style="fill:#fafafa"></path><path d="M364.66,404.61a9.37,9.37,0,0,0-2.71,5.3c-.27,1.4-2.47,1.38-2.31,0,0,0,.25-3.45,2.31-5.06A2.94,2.94,0,0,1,364.66,404.61Z" style="fill:#fafafa"></path><path d="M390.47,391s-.35,8.39-.81,11.14c-.28,1.64-2.43,3.36-7.78,3.18-3.76-.13-6.72.18-6.57-2.76l.33-8.57Z" style="fill:#ffa8a7"></path><path d="M398.86,371.18c-.19,2.29-.5,4.36.44,6.88,1.34,3.62,4.18,5.28,5.85,6.7a48.59,48.59,0,0,1,4.85,5.6c1.64,2,2.07,3.19,4.53,5.37a8.94,8.94,0,0,0,8.74,1.23c2.13-.91,2.87-1.63,2.74-4.9s-10.55-4.38-10.55-4.38Z" style="fill:#263238"></path><path d="M424.66,382.32c.89.32,1.11,1.93,1.25,5.13.1,2.42,1.17,6-2.34,7.49-2.83,1.23-7.35.41-9.26-1.87-2.38-2.85-4-5.36-7.4-8.83-3-3-6-4-7.33-10.05-.85-3.88-.18-5.48,2.56-6.59,3.77-1.53,9.68,3.46,12.64,4.25C417.32,372.52,423.77,382,424.66,382.32Z" style="fill:#37474f"></path><path d="M414.78,371.85l-.5-.17a9.67,9.67,0,0,0-8.16,5.09c-.5,1.05,1,1.87,2,1.05,2.1-4,6.42-4.86,8.15-5.05A4.16,4.16,0,0,0,414.78,371.85Z" style="fill:#fafafa"></path><path d="M417.21,373.67a9.6,9.6,0,0,0-7.58,5.05c-.5,1,1.05,1.87,2,1a9.9,9.9,0,0,1,6.8-4.83C418,374.49,417.6,374.06,417.21,373.67Z" style="fill:#fafafa"></path><path d="M425.17,376.54l-.51,6.75s-4.29,3.13-10.44.26c-.18-.37-.7-6.41-.7-6.41Z" style="fill:#ffa8a7"></path><path d="M401.31,378.64s.29-7.17,10.48-8.16l.59.31a8.73,8.73,0,0,0-5-3.68c-3.38-.87-6.06,0-7.84,2.14S399.55,377.25,401.31,378.64Z" style="fill:#fafafa"></path><path d="M428.14,331.58c-1.46-11.81-2-18.39-2-18.39s-.29-16.63.72-32c.44-6.74.67-14.2.81-21a107.52,107.52,0,0,0-1.78-22.34s-52.29-10.4-52.94,8.78c-.79,23-.69,62.31-1.58,77.32-.49,8.43.36,15.42.89,31.8.43,13.58.3,47,.3,47,5.76,7.91,19.36,1.88,19.36,1.88s4.2-46.93,4.82-56.63c.66-10.43-.44-15.71-.44-15.71l5.39-48.59s.41,15.59.87,24,1.69,13.58,3.88,29.27c1.9,13.62,5.94,48.38,5.94,48.38,7,4.14,13.76,0,13.76,0S429.6,343.39,428.14,331.58Z" style="fill:#455a64"></path><path d="M421,264.47s-6.55,8.36-15,11.95c0,0-3.66,29.39-3.63,28.81l-.95-29.58S414,270.09,421,264.47Z" style="fill:#37474f"></path><path d="M420.82,170c5.63-1.26,12,2.76,16.24,11.73,4.1,8.58,15.3,30.25,15.57,36.32.29,6.29-27.69,25.37-27,25,.22-.11-4.83-14.43-4.83-14.43l13.59-11.25L427,202.15Z" style="fill:#ffa8a7"></path><path d="M417.86,168.65c4.74-.58,13.33,1.21,16.61,6.91,4.76,8.25,9.1,17.79,14.63,30.12,0,0-4.1,8.88-15.9,9.72L426.13,203Z" style="fill:#37474f"></path><polygon points="394 161.22 394.82 178.72 412.16 177.79 411.63 157.46 394 161.22" style="fill:#ffa8a7"></polygon><path d="M429.19,177.46c-1.46-4.77-6.5-8.7-12.87-8.89-1.42,0-4.4,0-4.4,0-.72,2.95-9.75,4-17.47,2.23-2.33.62-12,3-14,3.6-5.55,1.84-7.26,7.5-8.12,25.6,0,0,.17,35.68,0,52.71,9.76,5.15,24.84,4.51,35.57,3.42,16.86-1.7,19.37-7.81,19.37-7.81-.71-9.93-.28-13.67,0-23.47.21-7.37,2.33-15.16,3-23.51C431.26,188.93,430.18,180.74,429.19,177.46Z" style="fill:#BA68C8"></path><g id="freepik--Scarf--inject-3"><path d="M391.29,164.54c-4-.28-9,2.91-10.29,9.74l3.26-.87Z" style="fill:#BA68C8"></path><path d="M391.29,164.54c-4-.28-9,2.91-10.29,9.74l3.26-.87Z" style="opacity:0.30000000000000004"></path><path d="M394.22,166c3,1,11.75.86,14.68,0s2.9-2.16,2.9-2.16v-1.47a8.27,8.27,0,0,1,4.73,1.47c1.87,1.52,5.09,7,5,9.63s-5.71,9.57-16.55,9.4-16.93-4.18-18.8-6.82l-1.88-2.65s2.57-5.28,5.1-7.5a8.52,8.52,0,0,1,4.75-2.32Z" style="fill:#BA68C8"></path><path d="M394.22,166c3,1,11.75.86,14.68,0s2.9-2.16,2.9-2.16v-1.47a8.27,8.27,0,0,1,4.73,1.47c1.87,1.52,5.09,7,5,9.63s-5.71,9.57-16.55,9.4-16.93-4.18-18.8-6.82l-1.88-2.65s2.57-5.28,5.1-7.5a8.52,8.52,0,0,1,4.75-2.32Z" style="opacity:0.2"></path></g><path d="M382.33,139.76s-4.13,6.27-3.66,6.88,3.51,1.18,3.51,1.18Z" style="fill:#f28f8f"></path><path d="M393.81,122.4c-8.36,1.77-11.7,4.22-12.22,18.51-.5,13.9,1.25,18.48,3.07,20.35,1.23,1.26,8.08,1.49,11.53.53,4.32-1.19,14.09-4.65,18.66-11.63,5.38-8.22,6.79-19.36,1-23.93C407.78,119.8,397.22,121.68,393.81,122.4Z" style="fill:#ffa8a7"></path><path d="M384.66,161.25c1,1,5.79,1.38,9.39.94l-.05-2.07A20.37,20.37,0,0,1,384.66,161.25Z" style="fill:#f28f8f"></path><path d="M380.48,127.77a9.83,9.83,0,0,0,7.2,1.73,5.39,5.39,0,0,0,.86,3.17,6.34,6.34,0,0,0,3.62,2.62,13,13,0,0,0-1.42,5.79,3.15,3.15,0,0,0,.39,1.82,1.18,1.18,0,0,0,2.13,0,15.25,15.25,0,0,1,1.76-3,5.74,5.74,0,0,1,3.58-2c5.25-.57,5.91,6.3,3.81,9.15-3.44,4.66-6.36,1.5-6.36,1.5a15.44,15.44,0,0,0,4.5,11.87,22.21,22.21,0,0,0,11.47.29c4.66-6.41,7.59-9.53,10.08-15.06,5.26-11.71,2.72-19.06-1.35-22.16-.8-5.39-5.05-7.81-9.9-8.92-7.24-1.67-14,2.63-21.18,1a35.13,35.13,0,0,1-3.49-.92,1.93,1.93,0,0,0-1.41-.09,1.58,1.58,0,0,0-.68,1.6c.09,1.38,1.49,2.91,2.2,3.65a15.85,15.85,0,0,1-4.69-.27,4.4,4.4,0,0,0-1.62,0,3,3,0,0,0-1.86,3A7.07,7.07,0,0,0,380.48,127.77Z" style="fill:#263238"></path><path d="M420.88,125.23l5-3a2.91,2.91,0,0,0-5,3Z" style="fill:#263238"></path><path d="M355.72,204q-1.7-6.68-3.28-13.38c-1-4.11-2.54-8.87-1.13-13.07a26.53,26.53,0,0,1,3-5.18,31.75,31.75,0,0,0,2.6-5.34c.35-.9.67-1.82,1-2.73s.8-1.43.58-2.3c-.73-2.85-4.41.89-5.16,2.06a11.45,11.45,0,0,1-1.16,1.74c-.48.51-1.65,1.15-2.21.4a2,2,0,0,1-.3-1c-.38-4.39,1.2-8.32,2.51-12.42a5.75,5.75,0,0,0,.37-1.68,2,2,0,0,0-.57-1.57,2.33,2.33,0,0,0-2.32-.3c-.74.25-1.38.72-2.12.95s-1.29.23-1.94.4a16.58,16.58,0,0,0-4.41,1.67c-2.4,1.41-3.46,3.47-4.09,6.09a32.17,32.17,0,0,0-.76,9.83c.17,2.19.56,4.35.83,6.51l.9,7.23c.61,4.82.79,28.9,1.62,33.69s2.43,8,6.22,9.59c5.5,2.24,14.39-7.88,19.44-13.12Z" style="fill:#ffa8a7"></path><path d="M353.71,201.27c-3.54,2.65-7.95,7.06-8.84,11.48,0,0-.88-7.95,8.84-15Z" style="fill:#f28f8f"></path><path d="M380.17,174.51c-3.4.32-9,.44-14.7,6.57-6.61,7.16-16.8,21.28-16.8,21.28s1.33,11.24,12.15,15.27c0,0,15.73-15,19.11-21.46S384.07,179,380.17,174.51Z" style="fill:#37474f"></path><g id="freepik--Pain--inject-3"><polygon points="375.64 150.75 371.34 148.44 373.81 146.33 364.88 142.15 368.78 139.89 359.16 134.77 364.88 139.82 360.23 142.15 370.72 146.69 368.13 149.28 375.64 150.75" style="fill:#BA68C8"></polygon><polygon points="377.83 145.08 375.03 142.4 376.56 141.27 374.1 138.35 376.46 137.55 375.64 133.85 377.3 137.84 375.64 138.56 378.3 141.48 376.5 142.76 377.83 145.08" style="fill:#BA68C8"></polygon><polygon points="376.2 154.98 370.92 159.1 368.97 156.23 364.35 158.74 362.46 155.19 355.31 157.02 363.58 153.06 365.95 156.33 369.79 154.27 371.39 157.02 376.2 154.98" style="fill:#BA68C8"></polygon></g><path d="M339.49,228.71h0a.79.79,0,0,1,1.11.1,8.1,8.1,0,0,0,8.35,2.38.79.79,0,1,1,.46,1.51,9.67,9.67,0,0,1-10-2.88A.78.78,0,0,1,339.49,228.71Z" style="fill:#e0e0e0"></path><path d="M340.29,234a.78.78,0,0,1,1,0A6.89,6.89,0,0,0,347,235.1a.8.8,0,0,1,.93.63.78.78,0,0,1-.62.92,8.44,8.44,0,0,1-7-1.49.78.78,0,0,1-.08-1.11A.3.3,0,0,1,340.29,234Z" style="fill:#e0e0e0"></path><path d="M438.48,173.39h0a.78.78,0,0,1-1.06-.35,8.13,8.13,0,0,0-7.57-4.26.79.79,0,0,1-.09-1.58,9.7,9.7,0,0,1,9.07,5.13A.8.8,0,0,1,438.48,173.39Z" style="fill:#e0e0e0"></path><path d="M438.92,168.09a.78.78,0,0,1-1-.24,6.92,6.92,0,0,0-5.22-2.42.79.79,0,0,1,.06-1.58,8.45,8.45,0,0,1,6.44,3.08A.78.78,0,0,1,439,168Z" style="fill:#e0e0e0"></path><path d="M452.9,225.73v0a.79.79,0,0,1,.31-1.07,8.11,8.11,0,0,0,3.89-7.76.78.78,0,0,1,.7-.87.79.79,0,0,1,.87.7A9.71,9.71,0,0,1,454,226,.79.79,0,0,1,452.9,225.73Z" style="fill:#e0e0e0"></path><path d="M458.21,225.92a.8.8,0,0,1,.19-1,6.87,6.87,0,0,0,2.17-5.33.79.79,0,0,1,1.58,0,8.52,8.52,0,0,1-2.76,6.58.79.79,0,0,1-1.11-.13Z" style="fill:#e0e0e0"></path><path d="M366.22,321h0a.8.8,0,0,1,.36,1.06,8.09,8.09,0,0,0,1.22,8.59.8.8,0,0,1-.09,1.12.79.79,0,0,1-1.11-.08,9.7,9.7,0,0,1-1.44-10.33A.8.8,0,0,1,366.22,321Z" style="fill:#e0e0e0"></path><path d="M361.74,323.85a.79.79,0,0,1,.42.94,6.88,6.88,0,0,0,1.25,5.62.8.8,0,0,1-.19,1.1.79.79,0,0,1-1.1-.19,8.49,8.49,0,0,1-1.48-7,.79.79,0,0,1,1-.52Z" style="fill:#e0e0e0"></path></g></g><g id="freepik--speech-bubbles--inject-3"><g id="freepik--speech-bubble--inject-3"><g id="freepik--speech-bubble--inject-3"><path d="M307.45,46.45a5.91,5.91,0,0,0-2.69-4.65l-2.18-1.27a6,6,0,0,0-5.37,0L246.56,69.8a5.93,5.93,0,0,0-2.69,4.65v26.19a5.94,5.94,0,0,0,2.69,4.65l2.19,1.26a5.91,5.91,0,0,0,5.37,0l50.64-29.26a5.91,5.91,0,0,0,2.69-4.65Z" style="fill:#BA68C8"></path><path d="M307.45,46.45a5.91,5.91,0,0,0-2.69-4.65l-2.18-1.27a6,6,0,0,0-5.37,0L246.56,69.8a5.93,5.93,0,0,0-2.69,4.65v26.19a5.94,5.94,0,0,0,2.69,4.65l2.19,1.26a5.91,5.91,0,0,0,5.37,0l50.64-29.26a5.91,5.91,0,0,0,2.69-4.65Z" style="fill:#fff;opacity:0.5"></path><path d="M243.87,100.64a5.94,5.94,0,0,0,2.69,4.65l2.19,1.26a6,6,0,0,0,4.91.22c-1.27.48-2.23-.23-2.23-1.77V78.81a5.48,5.48,0,0,1,.79-2.65l-7.56-4.36a5.45,5.45,0,0,0-.79,2.65Z" style="opacity:0.2"></path><path d="M307.36,45.69c-.31-1.14-1.35-1.51-2.59-.79L254.12,74.16a5.35,5.35,0,0,0-1.9,2l-7.55-4.36a5.4,5.4,0,0,1,1.89-2L297.2,40.54a5.91,5.91,0,0,1,5.37,0l2.2,1.26A5.94,5.94,0,0,1,307.36,45.69Z" style="fill:#fff;opacity:0.30000000000000004"></path><path d="M251.44,87.28h0l-7.55-4.36-9.1,8.76a1.28,1.28,0,0,0,.25,2L242.47,98a1.88,1.88,0,0,0,1,.21l8-1.53v-9.4Z" style="fill:#BA68C8"></path><path d="M251.44,87.28h0l-7.55-4.36-9.1,8.76a1.28,1.28,0,0,0,.25,2L242.47,98a1.88,1.88,0,0,0,1,.21l8-1.53v-9.4Z" style="fill:#fff;opacity:0.5"></path><path d="M242.47,98l-4-2.29L238,95.4l-2.14-1.24L235.6,94l-.57-.33a1.28,1.28,0,0,1-.25-2l9.1-8.76,7.56,4.37L242.34,96A1.27,1.27,0,0,0,242.47,98Z" style="fill:#fff;opacity:0.30000000000000004"></path></g><path d="M266.23,79.23a7.92,7.92,0,0,0-3.59,6.21c0,2.28,1.61,3.21,3.59,2.07a7.91,7.91,0,0,0,3.58-6.21C269.81,79,268.21,78.09,266.23,79.23Z" style="fill:#fff"></path><path d="M279.44,71.59a7.91,7.91,0,0,0-3.58,6.21c0,2.28,1.6,3.21,3.58,2.06a7.91,7.91,0,0,0,3.58-6.2C283,71.37,281.42,70.44,279.44,71.59Z" style="fill:#fff"></path><path d="M292.65,63.94a7.94,7.94,0,0,0-3.58,6.21c0,2.29,1.6,3.21,3.58,2.07A7.92,7.92,0,0,0,296.24,66C296.24,63.73,294.63,62.8,292.65,63.94Z" style="fill:#fff"></path></g><g id="freepik--speech-bubble--inject-3"><g id="freepik--speech-bubble--inject-3"><path d="M404.94,97.79,401.31,91l2.92-8.43V77.38l-8.94,5.16V87.7l3.84,6.66a.63.63,0,0,0,.26.23h0Z" style="fill:#BA68C8"></path><path d="M404.94,97.79,401.31,91l2.92-8.43V77.38l-8.94,5.16V87.7l3.84,6.66a.63.63,0,0,0,.26.23h0Z" style="opacity:0.2"></path><path d="M432.09,43.78a5.91,5.91,0,0,0-2.68-4.64l-2.18-1.26a5.89,5.89,0,0,0-5.36,0L371.34,67.07a6,6,0,0,0-2.68,4.65V97.85a5.91,5.91,0,0,0,2.68,4.64l2.18,1.26a6,6,0,0,0,5.36,0l22-12.8,3.84,6.64a.56.56,0,0,0,1-.1l4.06-11.69,19.58-11.25a5.91,5.91,0,0,0,2.68-4.64Z" style="fill:#BA68C8"></path><path d="M383.8,76.78l40.4-23.33c1.2-.69,2.17-.2,2.17,1.1a4.64,4.64,0,0,1-2.17,3.59L383.8,81.47c-1.19.69-2.16.2-2.16-1.1A4.65,4.65,0,0,1,383.8,76.78Z" style="fill:#fff"></path><path d="M383.8,87.17l40.4-23.32c1.2-.69,2.17-.2,2.17,1.09a4.64,4.64,0,0,1-2.17,3.6L383.8,91.86c-1.19.7-2.16.2-2.16-1.09A4.65,4.65,0,0,1,383.8,87.17Z" style="fill:#fff"></path><path d="M368.66,97.85a5.91,5.91,0,0,0,2.68,4.64l2.18,1.26a6,6,0,0,0,4.9.22c-1.26.47-2.22-.24-2.22-1.77V76.07a5.5,5.5,0,0,1,.78-2.64l-7.54-4.36a5.54,5.54,0,0,0-.78,2.65Z" style="opacity:0.2"></path></g><path d="M432,43c-.31-1.14-1.35-1.5-2.59-.79l-50.53,29.2a5.29,5.29,0,0,0-1.89,2l-7.54-4.35a5.45,5.45,0,0,1,1.89-2l50.52-29.2a6,6,0,0,1,5.37,0l2.18,1.26A5.89,5.89,0,0,1,432,43Z" style="fill:#fff;opacity:0.2"></path></g></g></svg>